<svg xmlns="http://www.w3.org/2000/svg" version="1.1" width="800px" height="800px" xlink="http://www.w3.org/1999/xlink" style="overflow:hidden!important;"><g id="svga-group-wrapper" transform="scale(4 4)"><g id="svga-group-backs-single"><path id="SvgjsPath4667" d="M225,225H-25V-25h250V225z" fill="#ecf0f1" stroke-width="none" opacity="1"></path><path id="SvgjsPath4668" d="M55.036,79.068h-29v-26h29V79.068z M84.203,33H43.536v33.068h40.667V33z M63.869,99.999H100V56.401H63.869V99.999z M76.869,95.734H40.536v31.333h36.333V95.734z M175.536,13.401H126v56.667h49.536V13.401z M119.536,39.068h-12v14h12V39.068z M155.818-4.266h-48.282v28.667h48.282V-4.266z M100,5.734H74v36h26V5.734z M40.536,8.401h-14.5v15.333h14.5V8.401z M21.171,33H-1.246v34.434h22.417V33z M47.536,99.999H8.203v43.735h39.333V99.999z M26.036,173.734h44.167v-26H26.036V173.734z M131.536,163.734H100.5v22.667h31.037V163.734z M206.792,141.067h-28.718v34h28.718V141.067z M159.536,156.491h-24.667v22.667h24.667V156.491z M183.178,111.733h-35.975v40.668h35.975V111.733z M192.202,181.734h-44.999v29.333h44.999V181.734z M43.536,163.734H-5.262v44h48.797V163.734z M202.869,53.068h-33.166v26h33.166V53.068z M183.178,90.401h-14.359v14.835h14.359V90.401z M-5.262,118h27.339V79.299H-5.262V118z M33.493-5.599l-49.291,1.333V33h49.291V-5.599z M211.536-4.266h-32v40.667h32V-4.266z M61-8.266H47.536v29.333H61V-8.266z M208.869,97.818h-32.871v26.667h32.871V97.818z" fill="#c6dce2" stroke="#f9f9f9" stroke-width="0.5" opacity="1"></path></g><g id="svga-group-subwrapper" transform="matrix(0.89999969 0 0 0.89999969 9.967039144637795 11.619220561174345) translate(-9.999999983634211e-8 0)"><g id="svga-group-hair-back" transform="matrix(0.9799999 0 0 0.9998999000000001 2.000010000000003 0.01000999999999408) rotate(-1e-7 100 150)"><path id="SvgjsPath5476" d="M160.527 108.896c-0.826 32.13-5.272 102.953-58.469 102.589 -80.381-0.551-60.969-69.5-61.767-102.589 -1.15-47.67 26.917-86.339 60.118-86.339C133.611 22.558 161.753 61.229 160.527 108.896z" fill="#000000" stroke-width="none" opacity="1"></path></g><g id="svga-group-humanbody-single"><path id="SvgjsPath2758" d="M190.858 199.866c-6.008-10.158-13.474-11.973-19.628-13.936 -6.323-2.016-19.346-3.178-26.449-4.6 -6.86-1.373-23.153-5.789-23.339-13.488 -0.192-8.066 4.291-40.09 4.291-40.09H74.005c0 0 4.487 32.023 4.294 40.09 -0.184 7.699-16.48 12.115-23.341 13.488 -7.104 1.422-20.125 2.584-26.448 4.6 -6.156 1.963-13.624 3.777-19.632 13.936 -3.644 6.16-6.008 16.133-6.008 27.133h194C196.869 215.999 194.509 206.026 190.858 199.866z" fill="#eeaa83" stroke-width="none" opacity="1" stroke="none"></path><path id="SvgjsPath2759" d="M121.442 167.843c2.495 10.929 18.165 13.698 26.293 15.325 21.909 4.379 33.772 5.134 42.297 19.539 2.903 4.916 5.459 15.864 5.962 24.153 1.835 0.291 0.531-17.432-5.136-26.994 -9.742-16.472-29.089-15.135-46.077-18.535C137.921 179.958 121.628 175.542 121.442 167.843L121.442 167.843zM78.558 167.843c-0.186 7.699-16.479 12.115-23.339 13.488 -16.988 3.4-36.335 2.063-46.077 18.535 -5.667 9.563-6.971 27.285-5.136 26.994 0.503-8.289 3.059-19.237 5.962-24.153 8.524-14.405 20.388-15.16 42.297-19.539C60.393 181.541 76.063 178.771 78.558 167.843L78.558 167.843z" fill="#fdc5a5" stroke-width="none" opacity="1" stroke="none"></path><path id="SvgjsPath2760" d="M51.206 189.513c0 0 28.641 0.299 33.473 1.885 2.314 0.758 8.372 5.633 8.372 5.633s-6.556-3.17-8.658-3.758C79.51 191.909 51.206 189.513 51.206 189.513zM99.795 199.999c2.053-0.041 7.887-3.799 7.887-3.799s-5.574 2.059-7.342 2.16c-1.491 0.086-6.366-1.238-6.366-1.238S98.112 200.032 99.795 199.999zM117.008 192.757c6.75-1.818 29.786-3.23 29.786-3.23s-23.791-0.516-30.51 1.725c-2.252 0.752-7.562 5.16-7.562 5.16S114.786 193.354 117.008 192.757z" fill="#df9164" stroke-width="none" opacity="1" stroke="none"></path><path id="SvgjsPath2761" d="M190.858 199.866c-9.741-16.471-29.122-15.142-46.077-18.535 -6.86-1.373-23.153-5.789-23.339-13.488 -0.192-8.066 4.291-40.09 4.291-40.09H74.005c0 0 4.487 32.023 4.294 40.09 -0.184 7.699-16.48 12.115-23.341 13.488 -7.104 1.422-20.125 2.584-26.448 4.6 -6.156 1.963-13.624 3.777-19.632 13.936 -3.644 6.16-6.008 16.133-6.008 27.133h194C196.869 215.999 194.509 206.026 190.858 199.866z" fill="none" stroke="#c06530" stroke-width="1.5" opacity="1"></path></g><g id="svga-group-chinshadow-single"><path id="SvgjsPath5240" d="M100.002 171.005c7.489 0 14.565-1.857 20.808-4.958 0.274-8.445 2.988-28.94 3.95-35.996 -4.783-0.815-10.15-1.364-15.722-1.647H90.966c-5.673 0.289-11.134 0.853-15.982 1.691 0.963 7.063 3.646 27.319 3.942 35.82C85.233 169.097 92.406 171.005 100.002 171.005z" fill="url(#SvgjsLinearGradient5241)" opacity="1"></path></g><g id="svga-group-clothes-single" ><path id="SvgjsPath4653" d="M4.299 238.659c-0.18-1-2.264-16.415-2.47-22.946 -0.294-9.499 1.371-23.079 10.881-22.987 10.824-7.524 29.089-14.021 41.718-17.795 7.903-8.587 9.483-11.971 22.612-17.874l-0.01-0.127c1.513 10.484 2.967 15.62-8.844 19.862 -1.893 2.63-3.665 5.194-6.158 8.787 3.793 20.511 4.981 34.739 5.444 53.437 0 0 3.771 0.011 65.288-0.271 2.066-21.594-0.221-33.876 4.806-53.726 0 0-4.021-4.846-6.726-8.573 -11.595-4.517-9.139-11.206-8.146-19.353 10.072 4.714 13.179 8.309 21.653 17.281 6.702 1.904 13.776 3.962 20.646 6.653 9.097 3.563 20.648 10.538 21.648 11.366 3.7-0.107 5.789 1.931 7.347 5.283 5.044 10.821 3.85 26.385 2.034 41.358C178.207 239.065 55.08 241.174 4.299 238.659z" fill="#690e9f" stroke-width="none" opacity="1"></path><path id="SvgjsPath4654" d="M77.464 159.895c0.149 1.034 0.284 2.015 0.383 2.938 -0.204 0.257-15.968 22.574-16.084 22.742C65.661 176.392 71.143 166.878 77.464 159.895zM122.424 159.895c-0.148 1.034-0.172 2.015-0.271 2.938 0.203 0.257 15.799 21.719 15.914 21.887C133.938 176.165 128.746 166.878 122.424 159.895zM158.775 189.93c-3.994 6.022-4.847 8.102-9.219 14.07 1 0 2.612 0.162 3.612 0.162C156.588 198.086 156.594 194.993 158.775 189.93zM162.868 233.644c3.54-8.603 6.471-16.152 10.022-24.768l-1.164-1.946C168.77 215.778 165.631 224.77 162.868 233.644zM46.831 204.162c1 0 2.612-0.162 3.612-0.162 -4.372-5.969-5.225-6.342-9.219-12.364C43.406 196.699 43.412 198.086 46.831 204.162zM28.273 206.93l-1.164 1.946c3.552 8.615 4.447 16.165 7.987 24.768C32.333 224.77 31.23 215.778 28.273 206.93z" fill="#5a0090" stroke-width="none" opacity="1"></path><path id="SvgjsPath4655" d="M77.059 169.855c-0.83 2.3-3.59 4.11-5.59 5.25 -0.97 0.55-1.99 1.02-3.02 1.46 0.47-0.68 0.95-1.36 1.44-2.03 2.32-3.24 4.58-6.5 6.75-9.85 0.31-0.48 0.61-0.97 0.91-1.46C77.709 165.396 77.889 167.875 77.059 169.855zM123.169 170.306c-1.26-2.11-1.14-4.94-1-7.351 2.3 4.101 4.72 8.11 7.45 11.971 0.28 0.399 0.56 0.79 0.85 1.18C127.549 174.795 124.829 173.096 123.169 170.306z" fill="#510080" stroke-width="none" opacity="1"></path><path id="SvgjsPath4656" d="M122.672 157.263c0.007-0.057 0.015-0.112 0.021-0.169 16.884 9.666 24.725 22.013 36.082 32.836 -0.418 0.697-1.146 1.155-1.573 1.843C145.308 182.397 141.597 170.396 122.672 157.263zM75.469 157.905c-14.219 4.537-32.507 31.672-34.445 33.519 0.418 0.697 0.645 0.558 1.073 1.245C53.992 183.294 54.309 172.286 75.469 157.905zM193.988 197.678c-1.558-3.353-3.646-5.391-7.347-5.283 -1-0.828-12.552-7.804-21.648-11.366 -6.636-2.6-13.705-3.761-20.203-5.61 31.446 15.756 44.648 20.435 50.14 26.017C194.642 200.654 194.332 198.416 193.988 197.678zM10 198c14.511-7.683 26.714-13.407 44.203-23.001 -12.62 3.784-30.732 10.246-41.493 17.727 -7.185-0.069-9.89 7.664-10.658 15.546C5.147 202.205 6.798 200.401 10 198z" fill="#7a21ae" stroke-width="none" opacity="1"></path><path id="SvgjsPath4657" d="M197.589 214.005c-0.21-5.52-1.16-11.329-3.51-16.369 -1.24-2.67-2.91-4.83-5.979-5.24 -0.36-0.05-0.721-0.08-1.08-0.09 -0.11-0.011-0.23-0.021-0.341-0.011 -0.069-0.06-0.149-0.1-0.22-0.149 -2.31-1.47-4.7-2.82-7.01-4.17 -4.66-2.721-9.39-5.07-14.42-7.04 -6.74-2.641-13.66-4.67-20.61-6.63 -0.79-0.83-1.59-1.67-2.38-2.511 -3.51-3.729-6.99-7.409-11.24-10.319 -2.3-1.58-4.75-2.92-7.27-4.101 -0.271-0.13-0.54-0.25-0.811-0.38 -0.029-0.02-0.069-0.029-0.109-0.05 -0.021 0.2-0.05 0.39-0.08 0.58 -0.2 1.33-0.42 2.67-0.58 4 -0.04 0.29-0.07 0.57-0.1 0.86 -0.011 0.149-0.03 0.29-0.04 0.439 -0.23 2.66-0.32 5.66 1.159 8 1.82 2.87 4.7 4.49 7.79 5.68 2.011 2.771 4.12 5.431 6.36 8.061 0.12 0.14 0.24 0.28 0.35 0.43 -0.939 3.71-1.59 7.51-2.17 11.28 -0.819 5.42-1.35 10.84-1.489 16.32 -0.15 5.449-0.011 10.939-0.311 16.39 -0.17 3.22-0.53 6.44-0.83 9.66 -1.069 0-2.14 0.01-3.21 0.01 -10.58 0.05-21.149 0.1-31.72 0.15 -10.06 0.05-20.11 0.08-30.17 0.109 -0.21-9.699-0.71-19.359-1.81-29.01 -0.58-5.01-1.06-10.04-1.95-15.01 -0.55-3.09-1.1-6.18-1.7-9.26 2.03-2.92 4.05-5.851 6.11-8.75 3.65-1.311 7.29-3.131 9.13-6.58 1.14-2.16 0.78-5.261 0.54-7.65 -0.01-0.1-0.02-0.189-0.03-0.29 -0.03-0.27-0.05-0.53-0.09-0.79 -0.15-1.359-0.36-2.72-0.55-4.07 -0.04-0.199-0.06-0.39-0.09-0.59 -0.05 0.021-0.09 0.04-0.13 0.051 -0.29 0.13-0.58 0.25-0.87 0.369 -2.75 1.17-5.42 2.521-7.9 4.181 -2.34 1.56-4.5 3.33-6.53 5.27 -1.99 1.91-3.76 4.09-5.6 6.141 -0.57 0.64-1.14 1.27-1.7 1.909 -1.31 0.391-2.61 0.801-3.91 1.2 -4.93 1.53-9.75 3.29-14.58 5.11 -2.61 0.99-5.18 2.07-7.75 3.16 -2.38 1.02-4.81 2.01-7.07 3.279 -2.51 1.4-5.09 2.86-7.56 4.48 -0.18 0.11-0.36 0.229-0.54 0.35 -0.11 0.07-0.21 0.141-0.31 0.21 -0.6-0.01-1.2 0.03-1.79 0.15 -3.79 0.729-6.07 4.16-7.31 7.55 -1.79 4.891-2.01 10.24-1.85 15.391 0.17 5.38 0.92 10.71 1.56 16.039 0.27 2.271 0.57 4.53 0.9 6.79 0 0.07 0.01 0.141 0.03 0.21 0.61 0.03 1.22 0.061 1.83 0.091 4.09 0.21 8.18 0.39 12.27 0.479 16.34 0.37 32.69 0.65 49.03 0.71 0.08 0 0.16 0 0.24 0 4.1 0.01 8.19 0.01 12.29-0.01 11.2-0.06 22.4-0.11 33.61-0.16 6.36-0.03 12.72-0.06 19.08-0.1 0.09 0 0.18 0 0.27-0.011 5.011-0.02 10.021-0.06 15.03-0.119 15.45-0.16 30.91-0.36 46.36-0.48 0.63-0.01 1.25-0.02 1.88-0.02 0.02-0.131 0.029-0.25 0.04-0.381 0.279-2.46 0.529-4.93 0.76-7.39C197.449 225.565 197.81 219.835 197.589 214.005zM77.059 169.855c-0.83 2.3-3.59 4.11-5.59 5.25 -0.97 0.55-1.99 1.02-3.02 1.46 0.47-0.68 0.95-1.36 1.44-2.03 2.32-3.24 4.58-6.5 6.75-9.85 0.31-0.48 0.61-0.97 0.91-1.46C77.709 165.396 77.889 167.875 77.059 169.855zM64.689 238.926c-12.94 0.029-25.88 0.06-38.82-0.011 -0.1 0-0.19 0-0.29 0 -6.52-0.04-13.03-0.16-19.55-0.319 -0.29-2.9-0.59-5.811-0.94-8.71 -0.69-5.681-1.44-11.36-1.4-17.101 0.03-5.2 0.18-11.33 3.06-15.859 1.11-1.75 2.74-2.95 4.65-3.421 0.54-0.14 1.11-0.22 1.7-0.22 0.01-0.01 0.01-0.01 0.02 0 0.31 2.05 0.66 4.09 1.01 6.141 0.36 2.159 0.64 4.34 1.22 6.449 0.62 2.19 1.25 4.38 1.95 6.551 1.3 4 2.59 8 3.85 12.02 1.26 4.06 3.14 7.86 4.73 11.79 -1.11-4.08-2.59-8.04-3.6-12.14 -0.99-3.98-2.25-7.83-3.53-11.721 -0.37-1.12-0.71-2.239-1.03-3.37 -0.94-3.229-1.72-6.47-2.45-9.77 -0.49-1.98-0.96-3.96-1.44-5.94 -0.03-0.119-0.06-0.229-0.09-0.35 0.12-0.06 0.24-0.12 0.35-0.18 0.28-0.15 0.56-0.29 0.83-0.431 2.67-1.39 5.35-2.76 8.08-4.02 4.87-2.23 9.93-4.21 14.94-6.11 5.05-1.91 10.08-3.859 15.1-5.85 -2.34 2.63-4.66 5.27-6.93 7.96 -1.78 2.11-3.35 4.35-4.84 6.64 -0.14 0.21-0.28 0.42-0.41 0.641 0.11 0.189 0.23 0.37 0.36 0.56 2.54 3.89 5.15 7.76 7.83 11.561 -2.62 0.22-5.24 0.47-7.85 0.789 -3.51 0.431-6.99 0.931-10.44 1.721 -0.73 0.17-1.46 0.33-2.2 0.479 -0.31 0.07-0.62 0.141-0.94 0.2 0.07 0.2 0.13 0.41 0.19 0.61 2.53 8.71 4.24 17.66 7.32 26.22 -0.87-5.3-1.74-10.57-2.98-15.8 -0.72-2.99-1.52-5.96-2.6-8.851 -0.21-0.58-0.45-1.149-0.7-1.72 0.7-0.1 1.4-0.22 2.1-0.35 3.52-0.63 7.04-1.2 10.59-1.63 2.64-0.32 5.26-0.71 7.88-1.141 0.39-0.06 0.78-0.12 1.17-0.189 -0.09-0.15-0.18-0.301-0.27-0.45 -1.07-1.82-2.21-3.601-3.41-5.36 -1.66-2.33-3.38-4.56-5.18-6.74 1.78-2.289 3.72-4.42 5.72-6.529 3.1-3.271 6.08-6.63 9.08-9.99 0.26-0.3 0.53-0.61 0.8-0.91 0.06-0.06 0.11-0.13 0.17-0.189 3.5-3.95 6.95-7.83 11.19-11.051 2.44-1.869 5.06-3.47 7.78-4.93 0.2-0.11 0.39-0.21 0.59-0.31 0.14 1.47 0.3 2.939 0.4 4.42 -2.85 4.09-5.75 8.149-8.67 12.21 -0.74 1.02-1.46 2.05-2.17 3.08 -0.04 0.05-0.08 0.109-0.12 0.16 -1.58 2.3-3.12 4.63-4.61 6.989 -0.13 0.21-0.26 0.41-0.39 0.62 0.05 0.42 0.09 0.83 0.14 1.24 0.97 9.04 1.84 18.09 2.86 27.13 0.95 8.49 1.65 17 2.7 25.47C66.359 238.926 65.529 238.926 64.689 238.926zM123.169 170.306c-1.26-2.11-1.14-4.94-1-7.351 2.3 4.101 4.72 8.11 7.45 11.971 0.28 0.399 0.56 0.79 0.85 1.18C127.549 174.795 124.829 173.096 123.169 170.306zM189.979 238.695c-5.431-0.03-10.87-0.06-16.301-0.08 -13.55-0.04-27.09-0.03-40.63 0.03 0.11-0.62 0.23-1.25 0.34-1.87 0.551-3.04 1.25-6.12 1.45-9.2 0.37-5.479 0.511-10.939 0.66-16.43 0.14-5.41 0.78-10.811 1.32-16.18 0.319-3.141 0.64-6.29 1.12-9.41 0.06-0.41 0.12-0.811 0.189-1.21 -0.1-0.15-0.21-0.29-0.319-0.44 -0.021-0.02-0.03-0.04-0.051-0.06 -1.71-2.23-3.46-4.42-5.149-6.66 -0.07-0.09-0.141-0.181-0.21-0.271 -0.65-0.859-1.29-1.729-1.91-2.609 -2.851-4.04-5.561-8.181-8.25-12.33 0.1-1.46 0.28-2.91 0.42-4.37 0.18 0.11 0.37 0.21 0.55 0.32 2.45 1.43 4.84 2.97 7.061 4.739 4.069 3.24 7.569 6.99 11.1 10.771 0.01 0.01 0.02 0.03 0.03 0.04 0.29 0.31 0.58 0.62 0.87 0.93 3.14 3.35 6.3 6.68 9.6 9.88 2 1.94 4.09 3.78 6.15 5.66 -0.36 0.44-0.71 0.88-1.061 1.33 -1.56 2.02-2.88 4.27-4.25 6.42 -1.189 1.96-2.32 3.94-3.39 5.96 -0.08 0.14-0.15 0.28-0.22 0.42 0.369 0.07 0.739 0.141 1.109 0.2 2.8 0.51 5.62 0.97 8.44 1.36 4.1 0.569 8.18 1.26 12.279 1.8 -0.229 0.43-0.439 0.859-0.649 1.29 -1.34 2.75-2.43 5.84-3.351 8.75 -1.699 5.359-3.06 10.72-4.06 16.26 1.01-2.63 1.94-5.28 2.87-7.93 0.99-2.84 1.8-5.761 2.83-8.59 1.16-3.211 2.29-6.431 3.41-9.65 0.069-0.19 0.13-0.37 0.199-0.561 -0.319-0.05-0.64-0.109-0.949-0.159 -4.15-0.75-8.29-1.521-12.471-2.11 -2.729-0.38-5.479-0.69-8.229-0.96 2.81-4.36 5.47-8.81 8.13-13.26 0.1-0.181 0.21-0.351 0.31-0.521 -0.159-0.2-0.33-0.39-0.51-0.58 -2.01-2.25-4.109-4.439-6.149-6.68 -2.16-2.38-4.37-4.72-6.591-7.05 6.46 2.38 12.95 4.66 19.381 7.109 4.77 1.82 9.3 4.23 13.85 6.54 2.03 1.021 4.11 2 6.16 3.04 0.24 0.11 0.479 0.23 0.71 0.351 0.149 0.08 0.29 0.149 0.43 0.229 -0.57 2.19-1.38 4.29-2.11 6.431 -1.05 3.08-1.88 6.22-2.779 9.35 -0.37 1.27-0.75 2.54-1.16 3.8 -1.37 4.17-2.66 8.32-3.73 12.59 -0.93 3.7-1.859 7.41-2.779 11.11 2.979-7.91 5.47-15.97 8.08-24.01 1.409-4.34 2.47-8.771 3.68-13.17 0.53-1.931 1.03-3.84 1.4-5.79 0.029-0.15 0.06-0.3 0.09-0.46 0.229 0.02 0.449 0.05 0.67 0.1 0.59 0.1 1.149 0.271 1.689 0.49 1.36 0.56 2.311 1.71 3.011 3.07 0.02 0.029 0.029 0.06 0.05 0.09 0.79 1.56 1.25 3.38 1.63 4.859 2.66 10.36 1.72 21.28 0.75 31.78 -0.17 1.85-0.33 3.69-0.48 5.54C192.839 238.716 191.409 238.705 189.979 238.695z" fill="#470071" stroke-width="none" opacity="1"></path></g><g id="svga-group-head" transform="rotate(-1e-7 100 150)"><g id="svga-group-ears-left" transform="matrix(0.9499999 0 0 0.9499999 2.2930631295539783 4.801203984102628) translate(1.5000001 -1)" style="display:none;"><path id="SvgjsPath5485" d="M47.218 82.634c-0.967-2.31-8.082-5.576-11.21-5.06 -3.538 0.583-4.838 4.047-4.369 6.612 1.103 6.025 3.996 8.563 5.296 13.268 1.096 3.97 3.433 6.253 4.588 7.938 1.42 2.07 2.73 6.818 3.023 7.512 0.463 1.096 2.103 3.757 5.002 3.619 3.333-0.16 7.545-6.211 7.614-7.557C57.544 101.679 49.733 88.647 47.218 82.634z" fill="#eeaa83" stroke="#c06530" stroke-width="1.5" opacity="1"></path><path id="SvgjsPath5486" d="M47.953 107.204c0 0 0.429-0.995-0.094-1.879 -0.672-1.134-2.423-3.219-2.821-4.467 -0.325-1.021-0.16-3.2-0.213-4.266 -0.094-1.886-1.492-3.177-1.927-4.26 -2.914-7.238-6.792-11.723-9-12.656 -1.633 3.705-0.339 6.416 1.94 12.116 -1.375-7.748-0.054-10.17-0.054-10.17S39.803 84.842 41.786 92c0.359 1.292-1.111 3.988-0.83 5.299 0.352 1.646 4.184 4.83 5.257 6.163C47.049 104.5 47.953 107.204 47.953 107.204z" fill="#c06530" stroke-width="none" opacity="1"></path></g><g id="svga-group-ears-right" transform="matrix(0.9499999 0 0 0.9499999 7.6939050006991465 4.801203984102628) translate(-1.5000001 -1)" style="display:none;"><path id="SvgjsPath5487" d="M152.52 82.634c0.967-2.31 8.082-5.576 11.211-5.06 3.539 0.583 4.838 4.047 4.369 6.612 -1.104 6.025-3.996 8.563-5.297 13.268 -1.096 3.97-3.434 6.253-4.588 7.938 -1.42 2.07-2.73 6.818-3.023 7.512 -0.463 1.096-2.104 3.757-5.002 3.619 -3.332-0.16-7.545-6.211-7.613-7.557C142.193 101.679 150.006 88.647 152.52 82.634z" fill="#eeaa83" stroke="#c06530" stroke-width="1.5" opacity="1"></path><path id="SvgjsPath5488" d="M151.785 107.204c0 0-0.43-0.995 0.094-1.879 0.672-1.134 2.424-3.219 2.82-4.467 0.324-1.021 0.16-3.2 0.215-4.266 0.094-1.886 1.49-3.177 1.926-4.26 2.914-7.238 6.793-11.723 9-12.656 1.633 3.705 0.338 6.416-1.939 12.116 1.375-7.748 0.053-10.17 0.053-10.17s-4.018 3.219-6.002 10.376c-0.357 1.292 1.111 3.988 0.83 5.299 -0.352 1.646-4.184 4.83-5.256 6.163C152.689 104.5 151.785 107.204 151.785 107.204z" fill="#c06530" stroke-width="none" opacity="1"></path></g><g id="svga-group-faceshape-wrap" transform="matrix(0.9799999 0 0 0.9998999000000001 2.0010404311775147 0.008071560086250429)"><g id="svga-group-faceshape-single" ><path id="SvgjsPath5237" d="M100.002 0.867C66.381 0.814 39.186 27.899 39.134 61.374c-0.008 5.316 0.669 10.473 1.953 15.389l0.004 0c0.011 0.053 8.845 35.17 15.375 53.208 5.578 15.41 23.021 29.3 43.536 29.3 20.514 0 37.958-13.89 43.537-29.3 6.529-18.038 15.362-53.155 15.374-53.208l0.005 0c1.283-4.916 1.961-10.072 1.952-15.389C160.819 27.899 133.623 0.814 100.002 0.867z" fill="#eeaa83" stroke-width="none" opacity="1"></path><path id="SvgjsPath5238" d="M146.769 22.635c7.449 10.15 11.881 22.804 11.902 36.538 0.008 5.316-0.644 10.473-1.884 15.389l-0.005 0c-0.012 0.053-8.522 35.17-14.816 53.208 -5.376 15.409-22.191 29.3-41.963 29.3 -19.773 0-36.585-13.891-41.961-29.3 -6.296-18.038-14.809-53.155-14.82-53.208l-0.004 0c-1.237-4.916-1.891-10.072-1.882-15.389 0.021-13.73 4.448-26.381 11.895-36.529 -8.781 10.491-14.072 23.989-14.095 38.729 -0.008 5.316 0.669 10.473 1.953 15.389l0.004 0c0.011 0.053 8.845 35.17 15.375 53.208 5.578 15.41 23.021 29.3 43.536 29.3 20.514 0 37.958-13.89 43.537-29.3 6.529-18.038 15.362-53.155 15.374-53.208l0.005 0c1.283-4.916 1.961-10.072 1.952-15.389C160.848 46.629 155.554 33.127 146.769 22.635z" fill="#e69d73" stroke-width="none" opacity="1"></path><path id="SvgjsPath5239" d="M100.002 0.867C66.381 0.814 39.186 27.899 39.134 61.374c-0.008 5.316 0.669 10.473 1.953 15.389l0.004 0c0.011 0.053 8.845 35.17 15.375 53.208 5.578 15.41 23.021 29.3 43.536 29.3 20.514 0 37.958-13.89 43.537-29.3 6.529-18.038 15.362-53.155 15.374-53.208l0.005 0c1.283-4.916 1.961-10.072 1.952-15.389C160.819 27.899 133.623 0.814 100.002 0.867z" fill="none" stroke="#c06530" stroke-width="1.5" opacity="1"></path></g></g><g id="svga-group-mouth-single" transform="matrix(1.3000013700000006 0 0 1.3000013700000006 -30.00404403078153 -41.50068472663327) translate(0 3.0000002)"><path id="SvgjsPath5615" d="M100.002 141.248c-4.158 0-5.133-3.404-5.133-3.404 5.5 2.12 10.267-0.146 10.267-0.146S103.659 141.248 100.002 141.248z" fill="url(#SvgjsLinearGradient5616)" opacity="1"></path><path id="SvgjsPath5619" d="M86.803 131.94c2.756-0.951 6.973-2.692 9.166-2.789 1.133-0.052 2.351 0.87 3.574 1.165 0.851 0.206 3.264-1.156 4.13-1.165 2.272-0.024 7.06 1.838 9.502 2.789 0.135 0.054 0 0 0 0s-5.789 6.953-13.185 6.953C91.618 138.894 86.803 131.94 86.803 131.94S86.666 131.989 86.803 131.94z" fill="#ee846c" stroke="#df694f" stroke-width="0.75" opacity="1"></path><path id="SvgjsPath5620" d="M113.541 131.736c-0.048-0.164-0.482-0.367-0.653-0.359 -0.311 0.017-0.672 0.396-1.313 0.41 -0.742 0.018-4.679 0.61-5.736 0.54 -2.129-0.142-3.824 0.666-5.848 0.666 -2.025 0-3.868-0.882-5.996-0.739 -1.057 0.072-4.847-0.448-5.591-0.467 -0.643-0.015-0.892-0.411-1.166-0.464 -0.192-0.036-0.663 0.166-0.757 0.338 -0.083 0.149 0.092 0.67 0.209 0.794 0.285 0.297 1.136 0.242 1.698 0.256 0.777 0.017 4.577 0.538 5.65 0.466 2.081-0.141 3.936 0.822 5.952 0.822s3.725-0.889 5.806-0.748c1.071 0.071 5.015-0.524 5.793-0.54 0.563-0.014 1.366-0.061 1.654-0.292C113.379 132.311 113.59 131.904 113.541 131.736z" fill="#c03c1e" stroke-width="none" opacity="1"></path><path id="SvgjsPath5621" d="M99.989 137.352c-3.37 0-6.645-1.153-9.241-3.305 1.307-0.072 2.652-0.277 3.961-0.22 1.613 0.07 3.144 0.707 4.756 0.813 1.742 0.116 3.358-0.487 5.064-0.694 1.422-0.17 3.664-0.674 5.091-0.622C107.068 135.28 103.244 137.352 99.989 137.352zM104.562 131.739c1.314-0.037 3.414-0.532 4.724-0.437 -1.405-0.759-3.657-0.941-5.243-1.247 -1.366-0.266-2.738 0.791-4.081 0.968 -1.514 0.199-2.65-1.239-4.119-1.288 -1.593 0.017-3.233 0.991-4.634 1.65 1.284-0.034 2.607-0.176 3.886-0.012 1.566 0.199 3.069 0.817 4.655 0.87C101.373 132.299 102.939 131.782 104.562 131.739z" fill="#fda18c" stroke-width="none" opacity="1"></path><path id="SvgjsPath5622" d="M99.941 136.4c-2.029 0-4.007-0.702-5.707-2.002 0.38-0.038 0.764-0.067 1.133-0.067 0.117 0 0.234 0.004 0.351 0.011 0.609 0.032 1.209 0.207 1.846 0.393 0.618 0.178 1.256 0.363 1.923 0.42 0.132 0.01 0.264 0.015 0.395 0.015 0.819 0 1.596-0.204 2.348-0.4 0.477-0.125 0.928-0.243 1.392-0.313 0.253-0.04 0.527-0.059 0.837-0.059 0.268 0 0.544 0.015 0.818 0.036C103.862 135.485 102.03 136.4 99.941 136.4z" fill="#ffb7a7" stroke-width="none" opacity="1"></path></g><g id="svga-group-eyes-left" transform="matrix(0.89999969 0 0 0.89999969 7.4498754657581685 8.799977307310897) translate(2.0000002 -2.0000001000000003)"><g id="svga-group-eyesback-left"><path id="SvgjsPath5383" d="M79.063 92.229c-4.31 0.755-7.656 0.71-10.688-0.204 -3.127-0.943-7.188-4.825-8.596-8.495 3.715-0.277 11.349-0.597 14.89-0.154 4.688 0.586 9.474 2.406 12.305 5.236 -0.016 0.294-0.053 0.583-0.087 0.872C84.602 91.031 81.366 91.825 79.063 92.229z" fill="url(#SvgjsRadialGradient5384)" opacity="1"></path></g><g id="svga-group-eyesiriswrapper-left" transform="translate(-1 0.5)"><g id="svga-group-eyesiriscontrol-left" ><g id="svga-group-eyesiris-left" transform="matrix(0.79999927 0 0 0.79999927 15.000054749999997 17.399863619133683)"><path id="SvgjsPath5363" d="M83.206 89.25c-1.231 4.522-5.896 7.187-10.429 5.944 -4.528-1.241-7.203-5.918-5.97-10.442 1.23-4.526 5.905-7.19 10.434-5.947C81.768 80.045 84.439 84.723 83.206 89.25z" fill="#3c2817" stroke="#0e0701" stroke-width="0.5" opacity="1"></path><path id="SvgjsPath5364" d="M73.962 81.918l-0.221-0.395c-0.776 0.308-1.524 0.631-2.232 0.973l0.524 1.267 -0.066 0.732 -2.021-1.189c-0.66 0.367-1.273 0.75-1.867 1.14l0.005 0.013 -0.692 0.78 1.107 1.132 -1.491 0.813 0.563 0.931 2.633 0.262 -2.468 1.673 2.641-0.146L68.984 92.3l3.255-1.969 -0.875 3.349 1.883-3.093 0.363 3.319 0.544-2.936 0.5-0.061 0.709 3.329 0.216-0.998c0.284-0.074 1.018 0.997 1.297 0.922l-0.829-3.621 1.817 3.621 -0.737-3.756 2.236 2.905c0.08-0.025 0.278-1.204 0.357-1.228l-1.392-2.081 2.53 0.763 -1.518-1.643 -1.219-1.009 5.083 1.137 -2.83-1.723 2-0.818 -4.329-0.437 4.281-2.27 -3.875 0.988 -1.043-0.565 -0.256-0.501 0.074-1.199 0.086-1.967 -1.768 3.113 -0.156-2.279 -0.222-0.597c-0.354 0.124-0.702 0.245-1.043 0.375L73.962 81.918z" fill="#4b3624" stroke-width="none" opacity="1"></path><path id="SvgjsPath5365" d="M83.303 85.237c-7.429 0.338-11.206 1.927-16.591 3.727 -1.038-4.574 1.839-9.12 6.42-10.149C77.712 77.786 82.267 80.661 83.303 85.237z" fill="#2d1b0d" stroke-width="none" opacity="0.9"></path><path id="SvgjsPath5366" d="M76.234,84.165c-1.869-0.536-3.777,0.532-4.258,2.395c-0.484,1.853,0.64,3.793,2.51,4.329c1.871,0.537,3.781-0.532,4.264-2.386C79.237,86.639,78.107,84.7,76.234,84.165z" fill="#000000" stroke-width="none" opacity="0.8"></path><path id="SvgjsPath5367" d="M76.234,84.165c-1.869-0.536-3.777,0.532-4.258,2.395c-0.484,1.853,0.64,3.793,2.51,4.329c1.871,0.537,3.781-0.532,4.264-2.386C79.237,86.639,78.107,84.7,76.234,84.165z" fill="none" stroke="#0e0701" stroke-width="0.75" opacity="1"></path><path id="SvgjsPath5368" d="M68.812 92.044c0.868 1.378 2.021 2.416 3.653 2.762 1.879 0.398 2.094-2.101 0.748-2.387 -1.02-0.215-1.667-0.715-2.199-1.561C70.039 89.31 68.029 90.803 68.812 92.044L68.812 92.044z" fill="#ffffff" stroke-width="none" opacity="0.5"></path><path id="SvgjsPath5369" d="M76.468 83.449c1.316 0.265 2.082 1.087 2.747 2.323 1.222 2.272 4.676 0.252 3.453-2.019 -1.073-1.995-2.86-3.703-5.138-4.162C74.615 79.004 74.206 82.993 76.468 83.449L76.468 83.449z" fill="url(#SvgjsLinearGradient5370)" opacity="1"></path></g></g></g><g id="svga-group-eyesfront-left"><path id="SvgjsPath5408" d="M56 88c0 13.808 8.06 24.999 18 24.999S92 101.808 92 88c0-13.809-8.06-25.001-18-25.001S56 74.191 56 88zM59.78 83.53c3.715-0.277 11.349-0.597 14.89-0.154 4.952 0.619 10.04 2.6 12.788 5.71 -2.289 1.82-5.897 2.705-8.395 3.143 -4.31 0.755-7.656 0.71-10.688-0.204C65.249 91.083 61.188 87.2 59.78 83.53z" fill="#eeaa83" stroke-width="none" opacity="1" stroke="none"></path><path id="SvgjsPath5409" d="M56.143 86.915c0.027 8.284 8.484 14.962 18.902 14.919 10.414-0.047 18.836-6.796 18.813-15.08 -0.027-8.285-8.486-14.963-18.902-14.92C64.539 71.881 56.119 78.63 56.143 86.915zM59.78 83.53c3.715-0.277 11.349-0.597 14.89-0.154 4.952 0.619 10.04 2.6 12.788 5.71 -2.289 1.82-5.897 2.705-8.395 3.143 -4.31 0.755-7.656 0.71-10.688-0.204C65.249 91.083 61.188 87.2 59.78 83.53z" fill="url(#SvgjsRadialGradient5410)" opacity="1"></path><path id="SvgjsPath5414" d="M59.78 83.53c3.715-0.277 11.349-0.597 14.89-0.154 4.952 0.619 10.04 2.6 12.788 5.71 -2.289 1.82-5.897 2.705-8.395 3.143 -4.31 0.755-7.656 0.71-10.688-0.204C65.249 91.083 61.188 87.2 59.78 83.53z" fill="url(#SvgjsRadialGradient5415)" opacity="1"></path><path id="SvgjsPath5418" d="M67.363 79.695c6.133-0.278 8.613 0.088 12.986 1.384 1.662 0.602 1.852 0.772 2.555 1.214C79.119 80.256 68.83 79.641 67.363 79.695zM59.396 86.752c2.854 5.494 4.797 4.894 7.531 6.058 0.025 0.009-1.51-0.579-2.664-1.196C61.273 89.895 60.908 89.163 59.396 86.752z" fill="#c06530" stroke-width="none" opacity="1" stroke="none"></path><path id="SvgjsPath5419" d="M56 81.734c3.096 2.525 4.363 5.953 7.398 8.529 2.037 1.729 5.877 2.717 9.602 2.773 3.844 0.058 8.59-0.434 10.258-0.855 2.838-0.718 3.539-1.278 6.742-1.472 -1.986-3.039-3.836-4.399-6.268-5.841 -2.977-1.764-5.074-2.279-8.719-2.564C70.16 81.924 56 81.734 56 81.734zM60.705 83.826c3.467-0.258 10.59-0.557 13.895-0.144 4.621 0.577 9.369 2.426 11.934 5.328 -2.137 1.699-5.504 2.524-7.834 2.933 -4.021 0.705-7.145 0.663-9.973-0.19C65.809 90.874 62.02 87.251 60.705 83.826z" fill="#000000" stroke-width="none" opacity="1" stroke="none"></path></g></g><g id="svga-group-eyes-right" transform="matrix(0.89999969 0 0 0.89999969 12.550186915712729 8.799977307310897) translate(-2.0000002 -2.0000001000000003)"><g id="svga-group-eyesback-right"><path id="SvgjsPath5391" d="M120.937 92.229c4.31 0.755 7.656 0.71 10.688-0.204 3.127-0.943 7.188-4.825 8.596-8.495 -3.715-0.277-11.349-0.597-14.89-0.154 -4.688 0.586-9.474 2.406-12.305 5.236 0.016 0.294 0.053 0.583 0.087 0.872C115.398 91.031 118.634 91.825 120.937 92.229z" fill="url(#SvgjsRadialGradient5392)" opacity="1"></path></g><g id="svga-group-eyesiriswrapper-right" transform="translate(1 0.5)"><g id="svga-group-eyesiriscontrol-right" ><g id="svga-group-eyesiris-right" transform="matrix(0.79999927 0 0 0.79999927 25.000091249999997 17.399863619133683)"><path id="SvgjsPath5373" d="M133.199 89.25c-1.231 4.522-5.896 7.187-10.429 5.944 -4.528-1.241-7.203-5.918-5.97-10.442 1.23-4.526 5.905-7.19 10.434-5.947C131.761 80.045 134.433 84.723 133.199 89.25z" fill="#3c2817" stroke="#0e0701" stroke-width="0.5" opacity="1"></path><path id="SvgjsPath5374" d="M123.955 81.918l-0.221-0.395c-0.776 0.308-1.524 0.631-2.232 0.973l0.524 1.267 -0.066 0.732 -2.021-1.189c-0.66 0.367-1.273 0.75-1.867 1.14l0.005 0.013 -0.692 0.78 1.107 1.132L117 87.182l0.563 0.931 2.633 0.262 -2.468 1.673 2.641-0.146 -1.392 2.398 3.255-1.969 -0.875 3.349 1.883-3.093 0.363 3.319 0.544-2.936 0.5-0.061 0.709 3.329 0.216-0.998c0.284-0.074 1.018 0.997 1.297 0.922l-0.829-3.621 1.817 3.621 -0.737-3.756 2.236 2.905c0.08-0.025 0.278-1.204 0.357-1.228l-1.392-2.081 2.53 0.763 -1.518-1.643 -1.219-1.009 5.083 1.137 -2.83-1.723 2-0.818 -4.329-0.437 4.281-2.27 -3.875 0.988 -1.043-0.565 -0.256-0.501 0.074-1.199 0.086-1.967 -1.768 3.113 -0.156-2.279 -0.222-0.597c-0.354 0.124-0.702 0.245-1.043 0.375L123.955 81.918z" fill="#4b3624" stroke-width="none" opacity="1"></path><path id="SvgjsPath5375" d="M133.296 85.237c-7.429 0.338-11.206 1.927-16.591 3.727 -1.038-4.574 1.839-9.12 6.42-10.149C127.705 77.786 132.26 80.661 133.296 85.237z" fill="#2d1b0d" stroke-width="none" opacity="0.9"></path><path id="SvgjsPath5376" d="M126.229,84.165c-1.869-0.536-3.777,0.532-4.259,2.395c-0.484,1.853,0.641,3.793,2.509,4.329c1.873,0.537,3.78-0.532,4.266-2.386C129.229,86.639,128.101,84.7,126.229,84.165z" fill="#000000" stroke-width="none" opacity="0.8"></path><path id="SvgjsPath5377" d="M126.229,84.165c-1.869-0.536-3.777,0.532-4.259,2.395c-0.484,1.853,0.641,3.793,2.509,4.329c1.873,0.537,3.78-0.532,4.266-2.386C129.229,86.639,128.101,84.7,126.229,84.165z" fill="none" stroke="#0e0701" stroke-width="0.75" opacity="1"></path><path id="SvgjsPath5378" d="M118.805 92.044c0.868 1.378 2.021 2.416 3.653 2.762 1.879 0.398 2.094-2.101 0.748-2.387 -1.02-0.215-1.667-0.715-2.199-1.561C120.032 89.31 118.022 90.803 118.805 92.044L118.805 92.044z" fill="#ffffff" stroke-width="none" opacity="0.5"></path><path id="SvgjsPath5379" d="M126.461 83.449c1.316 0.265 2.082 1.087 2.747 2.323 1.222 2.272 4.676 0.252 3.453-2.019 -1.073-1.995-2.86-3.703-5.138-4.162C124.608 79.004 124.199 82.993 126.461 83.449L126.461 83.449z" fill="url(#SvgjsLinearGradient5380)" opacity="1"></path></g></g></g><g id="svga-group-eyesfront-right"><path id="SvgjsPath5429" d="M126 62.999c-9.94 0-18 11.193-18 25.001 0 13.808 8.06 24.999 18 24.999S144 101.808 144 88C144 74.191 135.94 62.999 126 62.999zM131.624 92.025c-3.031 0.914-6.378 0.959-10.688 0.204 -2.497-0.438-6.105-1.323-8.395-3.143 2.748-3.11 7.836-5.091 12.788-5.71 3.541-0.443 11.175-0.123 14.89 0.154C138.812 87.2 134.751 91.083 131.624 92.025z" fill="#eeaa83" stroke-width="none" opacity="1" stroke="none"></path><path id="SvgjsPath5430" d="M125.045 71.834c-10.416-0.043-18.875 6.635-18.902 14.92 -0.023 8.284 8.398 15.033 18.813 15.08 10.418 0.043 18.875-6.635 18.902-14.919C143.881 78.63 135.461 71.881 125.045 71.834zM131.624 92.025c-3.031 0.914-6.378 0.959-10.688 0.204 -2.497-0.438-6.105-1.323-8.395-3.143 2.748-3.11 7.836-5.091 12.788-5.71 3.541-0.443 11.175-0.123 14.89 0.154C138.812 87.2 134.751 91.083 131.624 92.025z" fill="url(#SvgjsRadialGradient5431)" opacity="1"></path><path id="SvgjsPath5435" d="M140.22 83.53c-3.715-0.277-11.349-0.597-14.89-0.154 -4.952 0.619-10.04 2.6-12.788 5.71 2.289 1.82 5.897 2.705 8.395 3.143 4.31 0.755 7.656 0.71 10.688-0.204C134.751 91.083 138.812 87.2 140.22 83.53z" fill="url(#SvgjsRadialGradient5436)" opacity="1"></path><path id="SvgjsPath5439" d="M117.096 82.293c0.703-0.442 0.893-0.613 2.555-1.214 4.373-1.295 6.854-1.662 12.986-1.384C131.17 79.641 120.881 80.256 117.096 82.293zM135.736 91.614c-1.154 0.617-2.689 1.205-2.664 1.196 2.734-1.164 4.678-0.564 7.531-6.058C139.092 89.163 138.727 89.895 135.736 91.614z" fill="#c06530" stroke-width="none" opacity="1" stroke="none"></path><path id="SvgjsPath5440" d="M124.986 82.304c-3.645 0.285-5.742 0.8-8.719 2.564 -2.432 1.441-4.281 2.802-6.268 5.841 3.203 0.193 3.904 0.754 6.742 1.472 1.668 0.421 6.414 0.913 10.258 0.855 3.725-0.056 7.564-1.044 9.602-2.773 3.035-2.576 4.303-6.003 7.398-8.529C144 81.734 129.84 81.924 124.986 82.304zM131.273 91.753c-2.828 0.853-5.951 0.895-9.973 0.19 -2.33-0.409-5.697-1.234-7.834-2.933 2.564-2.902 7.313-4.751 11.934-5.328 3.305-0.413 10.428-0.114 13.895 0.144C137.98 87.251 134.191 90.874 131.273 91.753z" fill="#000000" stroke-width="none" opacity="1" stroke="none"></path></g></g><g id="svga-group-facehighlight-single" ><path id="SvgjsPath2750" d="M140.204 113.007c0.035 22.275-17.995 40.365-40.273 40.396 -22.274 0.036-40.361-17.993-40.396-40.272C59.501 90.857 77.53 72.77 99.808 72.735 122.083 72.701 140.171 90.73 140.204 113.007z" fill="url(#SvgjsRadialGradient2751)" opacity="1"></path><path id="SvgjsPath2754" d="M135,55.999c0,19.329-15.671,35-35,35c-19.329,0-35-15.671-35-35s15.671-35,35-35C119.329,20.999,135,36.67,135,55.999z" fill="url(#SvgjsRadialGradient2755)" opacity="1"></path></g><g id="svga-group-eyebrows-left" transform="matrix(0.9499999 0 0 0.9499999 3.5697238640879903 3.524461547200005) rotate(-10.714285714285715 72.39433479309082 70.48908996582031) translate(-1 0)"><path id="SvgjsPath5303" d="M54.351 74.996c9.743-15.115 36.491 5.148 38.018-1.191 0.299-1.271-0.407-2.015-1.564-2.492C77.184 65.807 59.156 61.18 54.351 74.996z" fill="#2a232b" stroke-width="none" opacity="1"></path></g><g id="svga-group-eyebrows-right" transform="matrix(0.9499999 0 0 0.9499999 6.430296231279627 3.524461547200005) rotate(10.714285914285714 127.60566711425781 70.48908996582031) translate(1 0)"><path id="SvgjsPath5304" d="M145.649 74.996c-9.743-15.115-36.491 5.148-38.018-1.191 -0.299-1.271 0.407-2.015 1.564-2.492C122.816 65.807 140.844 61.18 145.649 74.996z" fill="#2a232b" stroke-width="none" opacity="1"></path></g><g id="svga-group-nose-single" transform="matrix(1.2000009500000004 0 0 1.2000009500000004 -19.953051166923757 -21.200072491106283) translate(0 -1.0000000000000002)"><path id="SvgjsPath5546" d="M97.363 92.602c0 0 0.055 7.962-0.458 9.512 -1.129 3.405-6.123 11.297-5.49 13.486 0.985 3.403 5.817 3.652 8.259 3.771 2.338 0.115 7.091-0.055 7.857-2.267 0.312-0.9-0.361-3.197-0.361-3.197s-2.165 2.228-7.266 1.98c-1.456-0.07-3.824-1.5-3.851-3.517 -0.036-2.734 1.805-5.87 2.135-8.583C98.438 101.726 97.363 92.602 97.363 92.602z" fill="#df9164" stroke-width="none" opacity="1"></path><path id="SvgjsPath5547" d="M104.209 117.032c0.881 0 1.119 0.234 1.119 0.522 0 0.29-0.274 0.735-1.119 0.522 -0.928-0.231-2.548-0.124-2.548-0.124S103.328 117.032 104.209 117.032zM95.8 117.032c-0.881 0.001-1.119 0.236-1.119 0.525 0 0.288 0.265 0.704 1.119 0.521 0.941-0.201 2.548-0.125 2.548-0.125S96.682 117.035 95.8 117.032zM107.169 113.906c0 0 1.22 1.384 0.966 2.847 -0.246 1.421-2.709 2.047-2.709 2.047s1.71-1.085 1.917-2.403C107.439 115.781 107.169 113.906 107.169 113.906zM92.12 112.482c0 0-0.89 1.938-0.632 3.117 0.467 2.13 3.032 2.982 3.032 2.982s-1.601-1.462-2.17-2.753C91.729 114.42 92.12 112.482 92.12 112.482z" fill="#c06530" stroke-width="none" opacity="1"></path><path id="SvgjsPath5548" d="M104.166 114.937c0.854-0.637 0.939-1 0.763-1.237 -0.176-0.238-0.688-0.389-1.403 0.379 -0.788 0.846-2.502 1.47-2.502 1.47S103.312 115.574 104.166 114.937z" fill="#fdc5a5" stroke-width="none" opacity="1"></path></g><g id="svga-group-hair-front" transform="matrix(0.9799999 0 0 0.9998999000000001 2.0000108392375893 0.0045627011149633745)"><path id="SvgjsPath5478" d="M137.933 141.731c16.512-55.946-2.844-86.784-5.085-96.474 -0.461-1.994-2.839-7.675-2.839-7.675 -8.857-4.884-13.91-5.96-24.344-5.96 -7.02 0-10.784 0.161-17.606 2.384 -7.164 7.132-27.936 32.674-36.394 51.778 4.185 15.866 6.826 68.128 4.833 72.716 -15.408 0.498-9.962-129.099-9.962-129.099 5.36 0 103.2-4.161 108.719-4.161C155.255 25.241 161.143 139.85 137.933 141.731z" fill="#080806" stroke-width="none" opacity="0.1"></path><path id="SvgjsPath5479" d="M129.421 235.813c7.562-15.873 5.54-26.495 3.584-36.774 -1.463-7.688-2.978-15.637-0.401-25.709 -0.845-13.438 2.629-24.662 6.307-36.547 7.017-22.68 14.97-48.384-6.036-96.463l-0.026-0.062 -0.061-0.033c-8.857-4.884-19.055-7.465-29.488-7.465 -7.02 0-14.039 1.127-20.861 3.351 -7.164 7.132-24.063 29.375-32.521 48.479 0.245 3.976 0.862 8.197 1.927 13.381 4.34 21.321 4.5 38.71 4.654 55.53 0.23 25.185 0.45 48.987 15.491 81.027 -1.855-1.622-3.654-3.18-5.397-4.688 -18.63-16.117-30.938-26.765-34.354-51.049l-0.398 0.021c0 0-0.33 9.248-0.47 13.14C21.141 141.693 19.924 101.158 25.877 60.5 30.869 26.402 62.752-6.334 88.302-6.334c5.36 0 10.53 0.952 15.365 2.83l0.073 0.028 0.072-0.029c6.084-2.401 11.969-3.619 17.488-3.619 16.125 0 29.904 7.554 39.849 27.521 11.614 23.322 17.796 59.631 16.534 97.126 -1.229 36.535-9.174 68.096-21.295 84.732 0.656-3.462 0.867-5.002 1.26-8.908l-0.388-0.089c-7.468 20.085-17.243 30.866-26.698 41.292C130.182 234.974 129.8 235.394 129.421 235.813z" fill="#080806" stroke-width="none" opacity="1"></path><path id="SvgjsPath5480" d="M50.023 86.038c0.295 3.558 0.885 7.374 1.822 11.934 4.341 21.321 4.5 38.712 4.654 55.53 0.231 25.185 0.45 48.987 15.491 81.027 -1.855-1.623-3.654-3.18-5.397-4.688 -9.569-8.279-17.466-15.118-23.351-23.1 -9.281-17.978-12.373-31.131-12.373-60.673 4.5 24.167 5.667 36.329 23.74 60.667C36.699 171.857 29.855 120.033 50.023 86.038zM175.502 121.842C173.57 134.101 170.613 161.006 166 173c2.684-17.925 2.144-23.32 2-41 -4 23-9.352 50.397-20 68 3.834-15.765 7.255-28.928 7.255-48.595C150.202 170.072 141.482 173.074 140 187c3.888-36.515 20.87-75.267 3.842-113.642 5.986 28.08 0.275 46.59-4.933 63.424 -3.679 11.885-7.15 23.11-6.308 36.547 -2.574 10.071-1.061 18.021 0.402 25.709 1.956 10.28 3.979 20.901-3.584 36.773 0.379-0.419 0.76-0.839 1.143-1.261 9.455-10.426 19.23-21.207 26.698-41.292l0.388 0.089c-0.393 3.906-0.604 5.446-1.26 8.908C168.029 186.278 173.814 156.535 175.502 121.842zM37.27 72.427c-2.445 5.423-6.514 62.265-3.284 74.552 0.046 0.17-0.056-0.172-0.268-0.912C28.817 130.232 34.444 77.602 37.27 72.427zM28.995 149.658c0.151 1.726 0.322 2.77 0.297 2.562 -0.132-0.51-1.95-44.056-1.492-44.315 0.1-0.021 0.069 0.018 0.102 0.025C26.832 108.215 27.775 136.716 28.995 149.658zM161.813 133.315c-1.464 16.704-5.294 35.469-2.028 18.988 5.737-27.943 7.126-52.795 0.201-80.288C162.865 85.764 164.776 96.6 161.813 133.315z" fill="#000000" stroke-width="none" opacity="1"></path><path id="SvgjsPath5481" d="M127 29c16.888 6.402 32 75 26 115 10.155-44 7.566-81.265-11-119 16.968 27.907 24.125 38.909 26.371 82.435 3.32-19.596 2.846-43.368-0.37-69.895 -2.007-6.258-4.298-12.015-6.852-17.143C151.206 0.43 137.427-7.124 121.302-7.124c-5.521 0-11.403 1.218-17.489 3.619l-0.071 0.029 -0.073-0.028c-4.835-1.878-10.005-2.83-15.365-2.83 -12.584 0-27.104 8.274-39.002 20.577C32.418 39.738 27.122 71.139 28 101c1-24 13-48 28-66 -11 26-19 53-20 81 6-39 35.469-88.265 58-96 6.9-2.369 15.467-1.286 17.615 6.42 1.188 1.846 1.794 4.125 1.385 6.58 1.407-1.126 2.791-1.964 4.165-2.536C120.504 27.823 124.108 27.904 127 29z" fill="#10100d" stroke-width="none" opacity="1"></path><path id="SvgjsPath5482" d="M113 33c1-6-5-11.6-10-11.6 -8.118 0-16.148 7.781-21.182 15.339 0.212-0.22 0.42-0.433 0.619-0.63 6.822-2.224 13.841-3.351 20.861-3.351 10.435 0 20.63 2.582 29.488 7.465l0.06 0.033 0.027 0.062c0.054 0.123 0.102 0.24 0.152 0.362 -0.271-3.492-4.157-7.681-6.063-9.05C121.964 28.63 117.881 28.408 113 33z" fill="#000000" stroke-width="none" opacity="1"></path><path id="SvgjsPath5483" d="M123.605 15.551c14.693 2.885 21.418 18.935 25.36 33.284C149.686 51.544 142.26 19.955 123.605 15.551zM167.8 60.71c-2.621-21.61-11.549-43.651-30.488-54.378C163.85 22.934 168.197 63.544 167.8 60.71zM91.438 18.545c1.918-0.426-12.385 1.221-23.378 15.036 -7.164 8.71-13.558 21.986-16.138 27.16C59.841 44.582 73.947 22.662 91.438 18.545zM75.803 6.583C59.858 11.72 49.913 23.31 44.498 37.629 55.194 12.346 80.312 5.185 75.803 6.583zM111.399 5.315C107.242-3.4 99.008-7.734 86.591-6.171c12.168-0.83 20.242 4.56 23.477 11.712 -6.828-7.43-19.214 1.181-18.223 0.847 0.978-0.692 13.933-4.741 18.745 0.193 2.196 4.651 3.396 10.396 3.765 16.96 0.41 8.729 0.354-4.552-0.186-8.375 -0.458-3.457-1.292-6.551-2.495-9.251 4.005-5.099 11.348-5.508 17.675-2.897l0.041-0.091C123.153-0.222 114.057-0.279 111.399 5.315z" fill="#080806" stroke-width="none" opacity="1"></path><path id="SvgjsPath5484" d="M114.04 32.379c5.321-4.434 12.993-3.73 18.039 6.7l0.61 1.32c31.857 72.917-2.776 93.617-0.28 132.88 -6.107 23.896 10.536 35.066-3.79 63.72 9.811-10.893 20.781-22.021 28.83-43.67 -0.429 4.271-0.652 5.762-1.42 9.75 38.854-51.466 30.84-240.344-52.29-206.77 -26.87-12.574-69.464 14.093-78.06 64.16 -7.504 43.708-3.863 86.184 5.83 133.16 0.025-0.661 0.53-14.811 0.53-14.811 3.785 26.906 18.251 36.949 40.54 56.49 -25.454-53.516-9.508-83.19-20.54-137.379 -0.9-4.38-1.64-8.8-1.94-13.26 8.343-18.843 25.079-41.048 32.4-48.37l1.21-1.21c0.099-0.095 5.39-5.147 5.63-5.37 8.201-3.25 17.274-4.018 22.341 3.593 -3.037-7.992-13.058-8.04-20.73-5.043 8.445-7.445 18.682-10.292 22.191 4.081 0.103 0.419 0.082 1.196 0.082 1.196S113.665 32.692 114.04 32.379zM175.077 118.061c-0.38 12.364-2.541 54.771-17.658 82.27 1.066-4.51 1.76-8.328 2.021-12.801 4.745-14.82 5.854-26.1 6.028-27.1 -5.55 27.37-15.529 51.351-34.619 73.569 13.535-29.831-2.641-35.97 1.67-59.33 0.967 11.022 4.291 21.701 7.739 32.05 0.49-9.871 2.533-21.996 7.271-30.71 -1.799 2.479-7.063 14.054-7.93 26.21 -14.464-50.55 5.344-49.98 8.17-108.66 2.604 21.148-0.119 28.44-0.119 28.44 5.72-19.17 0.543-32.426-0.826-43.12 -1.693-13.216-10.355-34.177-11.654-36.99 -4.865-10.169-12.197-16.503-21.13-10.39 -8.374-24.158-29.294-0.563-35.459 6.21 -8.888 9.765-22.52 28.087-29.211 44.29 0 0.01-0.01 0.02-0.01 0.03 -4.833 11.717-6.102 20.844-7.32 28.84 2.306-11.387 4.596-18.222 7.43-24.77 0.18 3.31 0.57 6.61 1.08 9.87 8.997 57.645-6.818 82.899 20.06 136.78 -34.449-32.043-38.365-41.664-39.7-80.58 -0.238 24.988 0.937 10.513-0.14 30.7 -5.768-39.082-10.682-67.553-2.5-118.52 9.267-57.727 52.276-77.212 75.43-67.42 30.296-12.349 48.97 5.949 61.2 35.04 2.775 6.604 10.469 37.291 5.6 62.41 0 0 2.195-6.328 3.66-18.7C175.565 89.307 175.505 104.127 175.077 118.061z" fill="#000000" stroke-width="none" opacity="1"></path></g><g id="svga-group-glasses-single" ><path id="SvgjsPath4669" d="M100,18.13L100,18.13L100,18.13L100,18.13z" fill="#26120b" stroke-width="none" opacity="1"></path></g></g></g></g><defs id="SvgjsDefs1001"><radialGradient id="SvgjsRadialGradient2751" cx="100" cy="113" r="40" gradientUnits="userSpaceOnUse" class="svga-on-canvas-facehighlight-gradient-single-0"><stop id="SvgjsStop2752" stop-opacity="0.5" stop-color="#fdc5a5" offset="0" ></stop><stop id="SvgjsStop2753" stop-opacity="0" stop-color="#eeaa83" offset="0.9" ></stop></radialGradient><radialGradient id="SvgjsRadialGradient2755" cx="100" cy="57" r="36" gradientUnits="userSpaceOnUse" class="svga-on-canvas-facehighlight-gradient-single-1"><stop id="SvgjsStop2756" stop-opacity="0.5" stop-color="#fdc5a5" offset="0" ></stop><stop id="SvgjsStop2757" stop-opacity="0" stop-color="#eeaa83" offset="0.9" ></stop></radialGradient><radialGradient id="SvgjsRadialGradient4987" cx="-558.588" cy="-490.918" r="84.646" gradientTransform="matrix(0.096 -0.0248 0.0245 0.0961 140.5478 120.3577)" gradientUnits="userSpaceOnUse" class="svga-on-canvas-eyesiris-gradient-left-1"><stop id="SvgjsStop4988" stop-opacity="0.8" stop-color="#ffffff" offset="0" ></stop><stop id="SvgjsStop4989" stop-opacity="0" stop-color="#ffffff" offset="1" ></stop></radialGradient><radialGradient id="SvgjsRadialGradient4991" cx="-565.337" cy="-492.691" r="84.644" gradientTransform="matrix(0.0991 8.856325e-004 -0.0011 0.0991 130.3774 136.3533)" gradientUnits="userSpaceOnUse" class="svga-on-canvas-eyesiris-gradient-left-2"><stop id="SvgjsStop4992" stop-opacity="0.8" stop-color="#ffffff" offset="0" ></stop><stop id="SvgjsStop4993" stop-opacity="0" stop-color="#ffffff" offset="1" ></stop></radialGradient><linearGradient id="SvgjsLinearGradient4997" x1="122.283" y1="93.047" x2="123.61" y2="91.466" gradientTransform="matrix(1 0 0 1 -52 0)" gradientUnits="userSpaceOnUse" class="svga-on-canvas-eyesiris-gradient-left-5"><stop id="SvgjsStop4998" stop-opacity="1" stop-color="#ffffff" offset="0" ></stop><stop id="SvgjsStop4999" stop-opacity="0" stop-color="#ffffff" offset="1" ></stop></linearGradient><linearGradient id="SvgjsLinearGradient5005" x1="130" y1="81" x2="126" y2="85" gradientTransform="matrix(1 0 0 1 -50 0)" gradientUnits="userSpaceOnUse" class="svga-on-canvas-eyesiris-gradient-left-7"><stop id="SvgjsStop5006" stop-opacity="1" stop-color="#ffffff" offset="0" ></stop><stop id="SvgjsStop5007" stop-opacity="0" stop-color="#ffffff" offset="1" ></stop></linearGradient><radialGradient id="SvgjsRadialGradient5010" cx="-578.76" cy="-490.73" r="84.646" gradientTransform="matrix(0.096 -0.0248 0.0245 0.0961 192.4794 119.8404)" gradientUnits="userSpaceOnUse" class="svga-on-canvas-eyesiris-gradient-right-1"><stop id="SvgjsStop5011" stop-opacity="0.8" stop-color="#ffffff" offset="0" ></stop><stop id="SvgjsStop5012" stop-opacity="0" stop-color="#ffffff" offset="1" ></stop></radialGradient><radialGradient id="SvgjsRadialGradient5014" cx="-584.778" cy="-487.329" r="84.644" gradientTransform="matrix(0.0991 8.856325e-004 -0.0011 0.0991 182.3104 135.839)" gradientUnits="userSpaceOnUse" class="svga-on-canvas-eyesiris-gradient-right-2"><stop id="SvgjsStop5015" stop-opacity="0.8" stop-color="#ffffff" offset="0" ></stop><stop id="SvgjsStop5016" stop-opacity="0" stop-color="#ffffff" offset="1" ></stop></radialGradient><linearGradient id="SvgjsLinearGradient5020" x1="120.284" y1="93.047" x2="121.611" y2="91.467" gradientUnits="userSpaceOnUse" class="svga-on-canvas-eyesiris-gradient-right-5"><stop id="SvgjsStop5021" stop-opacity="1" stop-color="#ffffff" offset="0" ></stop><stop id="SvgjsStop5022" stop-opacity="0" stop-color="#ffffff" offset="1" ></stop></linearGradient><linearGradient id="SvgjsLinearGradient5028" x1="130" y1="81" x2="126" y2="85" gradientUnits="userSpaceOnUse" class="svga-on-canvas-eyesiris-gradient-right-7"><stop id="SvgjsStop5029" stop-opacity="1" stop-color="#ffffff" offset="0" ></stop><stop id="SvgjsStop5030" stop-opacity="0" stop-color="#ffffff" offset="1" ></stop></linearGradient><linearGradient id="SvgjsLinearGradient5241" x1="99.98" y1="171.27" x2="99.98" y2="136.351" gradientUnits="userSpaceOnUse" class="svga-on-canvas-chinshadow-gradient-single-0"><stop id="SvgjsStop5242" stop-opacity="0.8" stop-color="#df9164" offset="0" ></stop><stop id="SvgjsStop5243" stop-opacity="1" stop-color="#c06530" offset="0.7" ></stop></linearGradient><linearGradient id="SvgjsLinearGradient5370" x1="130" y1="81" x2="126" y2="85" gradientTransform="matrix(1 0 0 1 -50 0)" gradientUnits="userSpaceOnUse" class="svga-on-canvas-eyesiris-gradient-left-6"><stop id="SvgjsStop5371" stop-opacity="1" stop-color="#ffffff" offset="0" ></stop><stop id="SvgjsStop5372" stop-opacity="0" stop-color="#ffffff" offset="1" ></stop></linearGradient><linearGradient id="SvgjsLinearGradient5380" x1="130" y1="81" x2="126" y2="85" gradientUnits="userSpaceOnUse" class="svga-on-canvas-eyesiris-gradient-right-6"><stop id="SvgjsStop5381" stop-opacity="1" stop-color="#ffffff" offset="0" ></stop><stop id="SvgjsStop5382" stop-opacity="0" stop-color="#ffffff" offset="1" ></stop></linearGradient><radialGradient id="SvgjsRadialGradient5384" cx="127" cy="87.834" r="14" gradientTransform="matrix(-1 0 0 1 200 0)" gradientUnits="userSpaceOnUse" class="svga-on-canvas-eyesback-gradient-left-0"><stop id="SvgjsStop5385" stop-opacity="1" stop-color="#ffffff" offset="0" ></stop><stop id="SvgjsStop5386" stop-opacity="1" stop-color="#fdfefe" offset="0.544" ></stop><stop id="SvgjsStop5387" stop-opacity="1" stop-color="#f6f8f9" offset="0.74" ></stop><stop id="SvgjsStop5388" stop-opacity="1" stop-color="#eaeff2" offset="0.879" ></stop><stop id="SvgjsStop5389" stop-opacity="1" stop-color="#d9e3e8" offset="0.992" ></stop><stop id="SvgjsStop5390" stop-opacity="1" stop-color="#d8e2e7" offset="1" ></stop></radialGradient><radialGradient id="SvgjsRadialGradient5392" cx="127" cy="87.834" r="14" gradientUnits="userSpaceOnUse" class="svga-on-canvas-eyesback-gradient-right-0"><stop id="SvgjsStop5393" stop-opacity="1" stop-color="#ffffff" offset="0" ></stop><stop id="SvgjsStop5394" stop-opacity="1" stop-color="#fdfefe" offset="0.544" ></stop><stop id="SvgjsStop5395" stop-opacity="1" stop-color="#f6f8f9" offset="0.74" ></stop><stop id="SvgjsStop5396" stop-opacity="1" stop-color="#eaeff2" offset="0.879" ></stop><stop id="SvgjsStop5397" stop-opacity="1" stop-color="#d9e3e8" offset="0.992" ></stop><stop id="SvgjsStop5398" stop-opacity="1" stop-color="#d8e2e7" offset="1" ></stop></radialGradient><radialGradient id="SvgjsRadialGradient5400" cx="127" cy="87.834" r="14" gradientTransform="matrix(-1 0 0 1 200 0)" gradientUnits="userSpaceOnUse" class="svga-on-canvas-eyesfront-gradient-left-0"><stop id="SvgjsStop5401" stop-opacity="1" stop-color="#ffffff" offset="0" ></stop><stop id="SvgjsStop5402" stop-opacity="1" stop-color="#fdfefe" offset="0.544" ></stop><stop id="SvgjsStop5403" stop-opacity="1" stop-color="#f6f8f9" offset="0.74" ></stop><stop id="SvgjsStop5404" stop-opacity="1" stop-color="#eaeff2" offset="0.879" ></stop><stop id="SvgjsStop5405" stop-opacity="1" stop-color="#d9e3e8" offset="0.992" ></stop><stop id="SvgjsStop5406" stop-opacity="1" stop-color="#d8e2e7" offset="1" ></stop></radialGradient><radialGradient id="SvgjsRadialGradient5410" cx="125.16" cy="86.942" fx="138.734" fy="85.449" r="18.705" gradientTransform="matrix(0.9998 0.0208 0.0131 -0.6281 -51.4298 138.9481)" gradientUnits="userSpaceOnUse" class="svga-on-canvas-eyesfront-gradient-left-3"><stop id="SvgjsStop5411" stop-opacity="1" stop-color="#df9164" offset="0" ></stop><stop id="SvgjsStop5412" stop-opacity="0.3" stop-color="#df9164" offset="0.7" ></stop><stop id="SvgjsStop5413" stop-opacity="0" stop-color="#eeaa83" offset="1" ></stop></radialGradient><radialGradient id="SvgjsRadialGradient5415" cx="67.721" cy="109.165" r="29.505" gradientTransform="matrix(1.0322 -0.0541 0.0541 1.0322 -5.8613 6.0176)" gradientUnits="userSpaceOnUse" class="svga-on-canvas-eyesfront-gradient-left-4"><stop id="SvgjsStop5416" stop-opacity="0" stop-color="#000000" offset="0.95" ></stop><stop id="SvgjsStop5417" stop-opacity="0.3" stop-color="#000000" offset="1" ></stop></radialGradient><radialGradient id="SvgjsRadialGradient5421" cx="127" cy="87.834" r="14" gradientUnits="userSpaceOnUse" class="svga-on-canvas-eyesfront-gradient-right-0"><stop id="SvgjsStop5422" stop-opacity="1" stop-color="#ffffff" offset="0" ></stop><stop id="SvgjsStop5423" stop-opacity="1" stop-color="#fdfefe" offset="0.544" ></stop><stop id="SvgjsStop5424" stop-opacity="1" stop-color="#f6f8f9" offset="0.74" ></stop><stop id="SvgjsStop5425" stop-opacity="1" stop-color="#eaeff2" offset="0.879" ></stop><stop id="SvgjsStop5426" stop-opacity="1" stop-color="#d9e3e8" offset="0.992" ></stop><stop id="SvgjsStop5427" stop-opacity="1" stop-color="#d8e2e7" offset="1" ></stop></radialGradient><radialGradient id="SvgjsRadialGradient5431" cx="125.16" cy="86.942" fx="138.734" fy="85.449" r="18.705" gradientTransform="matrix(-0.9998 0.0208 -0.0131 -0.6281 251.4298 138.9481)" gradientUnits="userSpaceOnUse" class="svga-on-canvas-eyesfront-gradient-right-3"><stop id="SvgjsStop5432" stop-opacity="1" stop-color="#df9164" offset="0" ></stop><stop id="SvgjsStop5433" stop-opacity="0.3" stop-color="#df9164" offset="0.7" ></stop><stop id="SvgjsStop5434" stop-opacity="0" stop-color="#eeaa83" offset="1" ></stop></radialGradient><radialGradient id="SvgjsRadialGradient5436" cx="67.721" cy="109.165" r="29.506" gradientTransform="matrix(-1.0322 -0.0541 -0.0541 1.0322 205.8613 6.0176)" gradientUnits="userSpaceOnUse" class="svga-on-canvas-eyesfront-gradient-right-4"><stop id="SvgjsStop5437" stop-opacity="0" stop-color="#000000" offset="0.95" ></stop><stop id="SvgjsStop5438" stop-opacity="0.3" stop-color="#000000" offset="1" ></stop></radialGradient><linearGradient id="SvgjsLinearGradient5616" x1="100" y1="141" x2="100" y2="138" gradientUnits="userSpaceOnUse" class="svga-on-canvas-mouth-gradient-single-0"><stop id="SvgjsStop5617" stop-opacity="1" stop-color="#e69d73" offset="0.1" ></stop><stop id="SvgjsStop5618" stop-opacity="1" stop-color="#df9164" offset="1" ></stop></linearGradient></defs></svg>